PathFileType	4	(X/Y/Z)	/Users/itak/Documents/Research/Walk-IL/dataset/trc/00501_00183.trc
DataRate	CameraRate	NumFrames	NumMarkers	Units	OrigDataRate	OrigDataStartFrame	OrigNumFrames
100.000000	100.000000	4	53	mm	100.000000	260	695
Frame#	Time	RPSI			LPSI			L3			STRN			T10			C7			CLAV			RBAK			LBAK			LSHO			LUPA			LAEL			LAOL			LWTS			LWPS			LFRA			LIFD			LHPS			LHTS			RSHO			RUPA			RAEL			RAOL			RWTS			RWPS			RFRA			RIFD			RHTS			RHPS			RBHD			LFHD			RFHD			LBHD			LHIP			RHIP			RASI			LASI			LKNE			LTHI			LANK			LTIP			LTOE			LMT1			LMT5			LHEE			RKNE			RTHI			RANK			RTIP			RTOE			RMT1			RMT5			RHEE			
		X1	Y1	Z1	X2	Y2	Z2	X3	Y3	Z3	X4	Y4	Z4	X5	Y5	Z5	X6	Y6	Z6	X7	Y7	Z7	X8	Y8	Z8	X9	Y9	Z9	X10	Y10	Z10	X11	Y11	Z11	X12	Y12	Z12	X13	Y13	Z13	X14	Y14	Z14	X15	Y15	Z15	X16	Y16	Z16	X17	Y17	Z17	X18	Y18	Z18	X19	Y19	Z19	X20	Y20	Z20	X21	Y21	Z21	X22	Y22	Z22	X23	Y23	Z23	X24	Y24	Z24	X25	Y25	Z25	X26	Y26	Z26	X27	Y27	Z27	X28	Y28	Z28	X29	Y29	Z29	X30	Y30	Z30	X31	Y31	Z31	X32	Y32	Z32	X33	Y33	Z33	X34	Y34	Z34	X35	Y35	Z35	X36	Y36	Z36	X37	Y37	Z37	X38	Y38	Z38	X39	Y39	Z39	X40	Y40	Z40	X41	Y41	Z41	X42	Y42	Z42	X43	Y43	Z43	X44	Y44	Z44	X45	Y45	Z45	X46	Y46	Z46	X47	Y47	Z47	X48	Y48	Z48	X49	Y49	Z49	X50	Y50	Z50	X51	Y51	Z51	X52	Y52	Z52	X53	Y53	Z53	

261	2.6	-844.943603515625	959.5671997070312	-247.5386199951172	-796.5482788085938	950.3423461914062	-361.539794921875	-820.5599975585938	1030.790893554688	-308.1011962890625	-613.8759765625	1189.983032226562	-233.7935638427734	-832.1632690429688	1136.26416015625	-305.880126953125	-790.8619995117188	1365.63330078125	-288.7247009277344	-645.76123046875	1285.760864257812	-244.1999816894531	-864.3827514648438	1244.30810546875	-221.773193359375	-789.3004760742188	1312.787719726562	-380.2251586914062	-674.9539794921875	1356.725463867188	-420.8414001464844	-669.0823974609375	1230.33447265625	-482.0007019042969	-653.924560546875	1020.603271484375	-505.3441772460938	-741.9962158203125	1011.458129882812	-462.7864379882812	-573.4168090820312	838.6716918945312	-447.4868469238281	-636.331298828125	799.8377685546875	-505.2586364746094	-636.4120483398438	940.4619750976562	-502.8740844726562	-565.6923217773438	681.6406860351562	-434.8236694335938	-611.8030395507812	746.4425048828125	-493.2242736816406	-555.5665893554688	761.3389892578125	-462.8655395507812	-782.886962890625	1359.072021484375	-130.3256988525391	-814.679443359375	1290.945190429688	-80.04902648925781	-806.3846435546875	1023.506958007812	-30.57523155212402	-849.4569091796875	1004.050048828125	-77.08864593505859	-690.7929077148438	825.5916137695312	-44.57160186767578	-773.0057983398438	801.1134643554688	-10.76083564758301	-799.5499877929688	969.0602416992188	-22.54164123535156	-683.9517211914062	665.537841796875	-35.69861221313477	-677.3309326171875	733.175048828125	-14.97687435150146	-747.7930297851562	728.7061767578125	-3.742664337158203	-775.2221069335938	1520.606201171875	-194.4831848144531	-598.459228515625	1575.888305664062	-272.3609008789062	-650.3849487304688	1565.458251953125	-156.4114532470703	-722.9439086914062	1531.285278320312	-346.2239990234375	-642.119140625	875.833984375	-433.5028686523438	-792.75830078125	868.136474609375	-87.37166595458984	-675.5281372070312	916.4140014648438	-110.9177627563477	-589.6812133789062	918.7205200195312	-335.8039245605469	-560.1583251953125	460.6909484863281	-358.7630920410156	-575.84765625	618.4446411132812	-385.0993041992188	-862.5452880859375	196.7597198486328	-514.1197509765625	-647.2188720703125	357.8997497558594	-411.0309448242188	-781.386962890625	42.85662841796875	-413.2200317382812	-836.2796020507812	98.56557464599609	-402.1194763183594	-802.4071044921875	107.1149826049805	-500.7411804199219	-912.3074951171875	229.1451873779297	-466.9353332519531	-723.5558471679688	479.5106506347656	-123.2057495117188	-757.9735107421875	738.5216674804688	-74.46466064453125	-774.287841796875	50.42916107177734	-195.5203399658203	-706.2613525390625	333.14697265625	-143.8417510986328	-572.3018188476562	42.23162078857422	-154.8885498046875	-618.8833618164062	46.90472412109375	-215.22607421875	-676.757568359375	46.83377456665039	-137.3229827880859	-802.686279296875	39.63460159301758	-259.7713928222656	
262	2.61	-841.462646484375	959.5709838867188	-244.916259765625	-792.951904296875	950.5035400390625	-358.9739074707031	-817.076171875	1031.018310546875	-305.0100402832031	-610.306640625	1190.3232421875	-230.9991607666016	-828.7396850585938	1136.55322265625	-302.748291015625	-787.31396484375	1365.880004882812	-285.6527099609375	-642.1504516601562	1286.115966796875	-241.4006195068359	-860.744140625	1244.597778320312	-218.4720001220703	-786.0006103515625	1313.028198242188	-377.0975036621094	-671.758544921875	1356.866943359375	-418.0287475585938	-665.9591064453125	1230.463500976562	-479.0786743164062	-650.682373046875	1020.671447753906	-502.2320251464844	-738.6144409179688	1011.499633789062	-459.5138244628906	-569.0758056640625	839.494873046875	-444.5544738769531	-632.1956176757812	799.9991455078125	-501.6459045410156	-632.9110107421875	940.7930908203125	-499.67919921875	-560.0718383789062	682.609619140625	-431.4297485351562	-607.1659545898438	746.87841796875	-489.6796569824219	-550.7904052734375	762.3118896484375	-459.7643432617188	-779.0391845703125	1359.467895507812	-127.2803497314453	-810.616455078125	1291.349853515625	-76.85281372070312	-802.1294555664062	1023.988159179688	-27.12710571289062	-845.4093017578125	1004.493347167969	-73.43029022216797	-686.9265747070312	825.8124389648438	-41.5456428527832	-769.036865234375	801.5443725585938	-7.308192729949951	-795.28857421875	969.5398559570312	-19.09578323364258	-680.5504150390625	665.7030029296875	-32.8701286315918	-673.597412109375	733.3084716796875	-12.12636756896973	-743.9818725585938	729.052001953125	-0.47093266248703	-771.224365234375	1520.981567382812	-191.5886077880859	-594.6923828125	1576.044311523438	-270.0931701660156	-646.230224609375	1565.788452148438	-153.9570465087891	-719.4373168945312	1531.404541015625	-343.4935607910156	-637.7161254882812	876.5823364257812	-430.4291687011719	-789.7000122070312	867.7987670898438	-84.89765930175781	-672.3182373046875	916.352294921875	-107.7872161865234	-586.2483520507812	919.4571533203125	-332.5109558105469	-550.6860961914062	462.9474792480469	-353.0321044921875	-568.5722045898438	620.1798706054688	-380.8218994140625	-850.1035766601562	195.3922729492188	-507.2362365722656	-637.1310424804688	359.7199401855469	-404.92236328125	-762.870361328125	44.53526306152344	-407.4259948730469	-819.862060546875	97.80683898925781	-395.6511535644531	-786.81884765625	108.141487121582	-494.4636840820312	-900.801513671875	226.0167999267578	-459.6741638183594	-721.8584594726562	479.10107421875	-121.6604766845703	-755.26025390625	738.1179809570312	-72.20692443847656	-774.2364501953125	50.42451858520508	-195.4992523193359	-705.2477416992188	332.7648315429688	-142.8928070068359	-572.2843627929688	42.18044662475586	-154.8125762939453	-618.8687133789062	46.91173934936523	-215.1307983398438	-676.7481079101562	46.67986679077148	-137.1845855712891	-802.7041625976562	39.78384780883789	-259.6953125	
263	2.62	-837.9716796875	959.594970703125	-242.3928527832031	-789.3225708007812	950.7220458984375	-356.4768676757812	-813.5340576171875	1031.266235351562	-301.9552001953125	-606.7567138671875	1190.695678710938	-228.1918182373047	-825.2906494140625	1136.842529296875	-299.6810607910156	-783.7753295898438	1366.141723632812	-282.66064453125	-638.5634765625	1286.4990234375	-238.6097106933594	-857.133056640625	1244.9072265625	-215.2880859375	-782.6602783203125	1313.272583007812	-374.060791015625	-668.5115966796875	1357.015625	-415.2306213378906	-662.7879638671875	1230.632202148438	-476.2228698730469	-647.3698120117188	1020.789428710938	-499.2117309570312	-735.2328491210938	1011.5888671875	-456.4227600097656	-564.8158569335938	840.2971801757812	-441.6071472167969	-628.0033569335938	800.2050170898438	-498.2118225097656	-629.3480224609375	941.1553955078125	-496.5954284667969	-554.668701171875	683.5921020507812	-427.9669799804688	-602.551025390625	747.3153686523438	-486.2254943847656	-546.1311645507812	763.2293701171875	-456.6053161621094	-775.27099609375	1359.895385742188	-124.3176193237305	-806.6542358398438	1291.778564453125	-73.74429321289062	-797.9321899414062	1024.486083984375	-23.80224418640137	-841.3932495117188	1004.95068359375	-69.91094970703125	-683.0652465820312	826.0742797851562	-38.59514999389648	-765.0859985351562	802.00244140625	-3.977778434753418	-791.0778198242188	970.0377197265625	-15.77838611602783	-677.1203002929688	665.9172973632812	-30.12951278686523	-669.8756103515625	733.484130859375	-9.348176956176758	-740.1822509765625	729.4267578125	2.685709238052368	-767.2316284179688	1521.39697265625	-188.7764587402344	-590.90283203125	1576.169677734375	-267.8701171875	-642.0751953125	1566.114135742188	-151.5625457763672	-715.9010009765625	1531.53564453125	-340.8321838378906	-633.27294921875	877.4075927734375	-427.4299621582031	-786.7105712890625	867.4369506835938	-82.51422119140625	-669.2755126953125	916.25048828125	-104.7059326171875	-582.8173828125	920.2035522460938	-329.2146911621094	-541.5284423828125	465.341552734375	-347.5335388183594	-561.4031982421875	622.0310668945312	-376.6708068847656	-837.1959228515625	193.0506134033203	-500.2362365722656	-627.1214599609375	361.4162292480469	-398.9986572265625	-743.6829833984375	46.03158569335938	-401.0671997070312	-802.8216552734375	96.61879730224609	-388.7650756835938	-770.722900390625	108.4253234863281	-487.8305969238281	-888.8065185546875	221.9215393066406	-452.3493347167969	-720.2052612304688	478.6899108886719	-120.1829376220703	-752.5995483398438	737.7013549804688	-70.04233551025391	-774.1841430664062	50.42522811889648	-195.481201171875	-704.2584228515625	332.3877258300781	-141.9859771728516	-572.2681274414062	42.14094543457031	-154.7297210693359	-618.852294921875	46.9097785949707	-215.0424499511719	-676.7355346679688	46.53189849853516	-137.0578765869141	-802.7111206054688	39.93510818481445	-259.630126953125	
264	2.63	-834.4721069335938	959.6299438476562	-239.9553527832031	-785.6725463867188	950.986572265625	-354.0358581542969	-809.948486328125	1031.52490234375	-298.9359436035156	-603.2225341796875	1191.086669921875	-225.3691101074219	-821.8170776367188	1137.128173828125	-296.6666564941406	-780.2410888671875	1366.41162109375	-279.7387084960938	-634.9998168945312	1286.891967773438	-235.8213806152344	-853.5435791015625	1245.22998046875	-212.2079315185547	-779.2781982421875	1313.5126953125	-371.1033325195312	-665.2083129882812	1357.16650390625	-412.4443359375	-659.5702514648438	1230.825805664062	-473.4286499023438	-643.9859008789062	1020.950866699219	-496.2898559570312	-731.84228515625	1011.714660644531	-453.5028076171875	-560.6300048828125	841.0595703125	-438.6518859863281	-623.7708129882812	800.4547729492188	-494.9618835449219	-625.7333984375	941.5379028320312	-493.62353515625	-549.5156860351562	684.5491333007812	-424.4699401855469	-597.9693603515625	747.7442016601562	-482.8764038085938	-541.5928344726562	764.0712890625	-453.4059753417969	-771.5694580078125	1360.344360351562	-121.4256057739258	-802.7868041992188	1292.224975585938	-70.71137237548828	-793.8056640625	1024.989868164062	-20.60145950317383	-837.4207763671875	1005.414794921875	-66.53529357910156	-679.2072143554688	826.3766479492188	-35.7131233215332	-761.1541137695312	802.477783203125	-0.7751513719558716	-786.9319458007812	970.5432739257812	-12.58940410614014	-673.6329345703125	666.1867065429688	-27.46426200866699	-666.1512451171875	733.7062377929688	-6.627339363098145	-736.38720703125	729.8244018554688	5.731285572052002	-763.2427978515625	1521.843872070312	-186.0427703857422	-587.08984375	1576.257690429688	-265.6924133300781	-637.9230346679688	1566.43896484375	-149.2290344238281	-712.3355102539062	1531.665283203125	-338.2393493652344	-628.819580078125	878.3001708984375	-424.5052795410156	-783.7664184570312	867.0578002929688	-80.20488739013672	-666.3743896484375	916.1016235351562	-101.6864624023438	-579.3886108398438	920.9502563476562	-325.9370422363281	-532.65283203125	467.8360595703125	-342.2672729492188	-554.3641357421875	623.9666748046875	-372.6488342285156	-823.83837890625	189.8242645263672	-493.1190795898438	-617.1421508789062	362.9247436523438	-393.2464599609375	-723.962158203125	47.31998443603516	-394.2281188964844	-785.2305908203125	95.04037475585938	-381.5186157226562	-754.1983642578125	108.0166549682617	-480.8902282714844	-876.3084106445312	216.9475708007812	-444.9479675292969	-718.5935668945312	478.2770690917969	-118.7638549804688	-749.9744262695312	737.276611328125	-67.95633697509766	-774.1309814453125	50.43239974975586	-195.4662017822266	-703.2894897460938	332.0164184570312	-141.1187133789062	-572.2528686523438	42.11347961425781	-154.6401519775391	-618.8351440429688	46.89813613891602	-214.9627532958984	-676.7224731445312	46.39494705200195	-136.9441223144531	-802.7074584960938	40.08735275268555	-259.5780944824219	
